STARTFONT 2.1
FONT -FontForge-Tangerine-Book-R-Normal--32-320-72-72-P-119-ISO10646-1
SIZE 32 72 72
FONTBOUNDINGBOX 54 34 -11 -9
COMMENT "Generated by fontforge, http://fontforge.sourceforge.net"
COMMENT "Copyright (c) 2010 by Toshi Omagari. All rights reserved."
STARTPROPERTIES 39
FOUNDRY "FontForge"
FAMILY_NAME "Tangerine"
WEIGHT_NAME "Book"
SLANT "R"
SETWIDTH_NAME "Normal"
ADD_STYLE_NAME ""
PIXEL_SIZE 32
POINT_SIZE 320
RESOLUTION_X 72
RESOLUTION_Y 72
SPACING "P"
AVERAGE_WIDTH 119
CHARSET_REGISTRY "ISO10646"
CHARSET_ENCODING "1"
FONTNAME_REGISTRY ""
CHARSET_COLLECTIONS "ISO10646-1"
FONT_NAME "Tangerine-Regular"
FACE_NAME "Tangerine Regular"
COPYRIGHT "Copyright (c) 2010 by Toshi Omagari. All rights reserved."
FONT_VERSION "1.3"
FONT_ASCENT 24
FONT_DESCENT 8
UNDERLINE_POSITION -3
UNDERLINE_THICKNESS 2
X_HEIGHT 7
CAP_HEIGHT 20
RAW_ASCENT 750
RAW_DESCENT 250
NORM_SPACE 5
RELATIVE_WEIGHT 40
RELATIVE_SETWIDTH 50
SUPERSCRIPT_X 0
SUPERSCRIPT_Y 15
SUPERSCRIPT_SIZE 20
SUBSCRIPT_X 0
SUBSCRIPT_Y 4
SUBSCRIPT_SIZE 20
AVG_LOWERCASE_WIDTH 78
AVG_UPPERCASE_WIDTH 225
ENDPROPERTIES
CHARS 233
STARTCHAR space
ENCODING 32
SWIDTH 150 0
DWIDTH 5 0
BBX 1 1 0 0
BITMAP
00
ENDCHAR
STARTCHAR exclam
ENCODING 33
SWIDTH 189 0
DWIDTH 6 0
BBX 8 17 2 0
BITMAP
01
02
02
06
04
04
08
08
10
10
20
20
20
00
00
C0
80
ENDCHAR
STARTCHAR quotedbl
ENCODING 34
SWIDTH 214 0
DWIDTH 7 0
BBX 8 4 1 9
BITMAP
33
66
44
88
ENDCHAR
STARTCHAR numbersign
ENCODING 35
SWIDTH 289 0
DWIDTH 9 0
BBX 10 10 0 0
BITMAP
0480
0900
3FC0
5200
1200
2200
FF00
2400
4800
4800
ENDCHAR
STARTCHAR dollar
ENCODING 36
SWIDTH 269 0
DWIDTH 9 0
BBX 8 14 0 -2
BITMAP
01
02
0F
13
15
14
0C
0E
92
D2
96
78
20
40
ENDCHAR
STARTCHAR percent
ENCODING 37
SWIDTH 388 0
DWIDTH 12 0
BBX 11 14 1 -2
BITMAP
0060
0040
3080
C900
8A00
9200
94C0
EB20
0A20
1240
2240
4380
4000
8000
ENDCHAR
STARTCHAR ampersand
ENCODING 38
SWIDTH 507 0
DWIDTH 16 0
BBX 15 15 1 0
BITMAP
0300
0D00
0900
0900
0900
0A00
0C00
180C
6432
8440
8440
8280
8100
C1C6
3E78
ENDCHAR
STARTCHAR quotesingle
ENCODING 39
SWIDTH 120 0
DWIDTH 4 0
BBX 3 4 2 9
BITMAP
20
40
40
80
ENDCHAR
STARTCHAR parenleft
ENCODING 40
SWIDTH 250 0
DWIDTH 8 0
BBX 8 23 3 -3
BITMAP
03
04
08
08
10
10
20
20
60
40
40
40
C0
80
80
80
80
80
80
80
80
80
40
ENDCHAR
STARTCHAR parenright
ENCODING 41
SWIDTH 276 0
DWIDTH 9 0
BBX 7 23 1 -3
BITMAP
02
02
02
02
02
02
02
02
02
02
02
02
06
04
04
0C
08
08
10
10
20
40
80
ENDCHAR
STARTCHAR asterisk
ENCODING 42
SWIDTH 188 0
DWIDTH 6 0
BBX 5 5 1 8
BITMAP
10
20
F8
50
90
ENDCHAR
STARTCHAR plus
ENCODING 43
SWIDTH 301 0
DWIDTH 10 0
BBX 8 7 1 1
BITMAP
04
08
08
FF
10
10
20
ENDCHAR
STARTCHAR comma
ENCODING 44
SWIDTH 112 0
DWIDTH 4 0
BBX 2 4 1 -2
BITMAP
40
40
40
80
ENDCHAR
STARTCHAR hyphen
ENCODING 45
SWIDTH 245 0
DWIDTH 8 0
BBX 5 1 2 4
BITMAP
F8
ENDCHAR
STARTCHAR period
ENCODING 46
SWIDTH 112 0
DWIDTH 4 0
BBX 2 2 1 0
BITMAP
C0
80
ENDCHAR
STARTCHAR slash
ENCODING 47
SWIDTH 210 0
DWIDTH 7 0
BBX 13 21 -1 -1
BITMAP
0008
0010
0010
0020
0040
0040
0080
0080
0100
0100
0200
0400
0400
0800
0800
1000
1000
2000
4000
4000
8000
ENDCHAR
STARTCHAR zero
ENCODING 48
SWIDTH 349 0
DWIDTH 11 0
BBX 9 10 2 0
BITMAP
0F00
3180
4080
8080
8080
8080
8100
8200
C200
7C00
ENDCHAR
STARTCHAR one
ENCODING 49
SWIDTH 189 0
DWIDTH 6 0
BBX 6 10 1 0
BITMAP
04
7C
18
10
30
20
60
60
C0
C0
ENDCHAR
STARTCHAR two
ENCODING 50
SWIDTH 277 0
DWIDTH 9 0
BBX 8 10 1 0
BITMAP
0E
11
21
01
02
02
0C
10
61
BE
ENDCHAR
STARTCHAR three
ENCODING 51
SWIDTH 253 0
DWIDTH 8 0
BBX 10 15 -2 -5
BITMAP
0380
0C40
0040
0040
0180
0600
0900
0080
0080
0080
0080
0100
8100
8600
7800
ENDCHAR
STARTCHAR four
ENCODING 52
SWIDTH 363 0
DWIDTH 12 0
BBX 14 16 1 0
BITMAP
0004
0018
0030
00E0
0160
0240
04C0
0880
1080
2100
6130
9FC0
0200
0600
0600
0400
ENDCHAR
STARTCHAR five
ENCODING 53
SWIDTH 250 0
DWIDTH 8 0
BBX 12 16 -2 -5
BITMAP
0010
01F0
0200
0400
0400
0400
0600
0300
0180
0080
0080
0080
0100
0100
8200
7C00
ENDCHAR
STARTCHAR six
ENCODING 54
SWIDTH 296 0
DWIDTH 9 0
BBX 12 16 2 0
BITMAP
01E0
0210
0C00
1000
1000
2000
2000
5C00
6200
C200
8200
8200
8400
8400
C800
7000
ENDCHAR
STARTCHAR seven
ENCODING 55
SWIDTH 326 0
DWIDTH 10 0
BBX 12 15 0 -5
BITMAP
1FF0
1020
2020
2040
0080
0100
0100
0200
0400
0800
1000
2000
6000
4000
8000
ENDCHAR
STARTCHAR eight
ENCODING 56
SWIDTH 305 0
DWIDTH 10 0
BBX 10 15 1 0
BITMAP
0780
0840
0840
0840
0C80
0500
0200
1F00
6180
8080
8080
8080
8100
C200
7C00
ENDCHAR
STARTCHAR nine
ENCODING 57
SWIDTH 304 0
DWIDTH 10 0
BBX 10 15 -1 -5
BITMAP
0380
0C40
1040
1040
1040
1040
10C0
1980
0E80
0180
0100
0200
0200
8400
7800
ENDCHAR
STARTCHAR colon
ENCODING 58
SWIDTH 156 0
DWIDTH 5 0
BBX 4 8 1 0
BITMAP
10
20
00
00
00
00
40
80
ENDCHAR
STARTCHAR semicolon
ENCODING 59
SWIDTH 156 0
DWIDTH 5 0
BBX 4 11 0 -3
BITMAP
10
10
00
00
00
00
60
60
40
80
80
ENDCHAR
STARTCHAR less
ENCODING 60
SWIDTH 301 0
DWIDTH 10 0
BBX 8 7 1 1
BITMAP
01
0E
30
C0
60
18
0C
ENDCHAR
STARTCHAR equal
ENCODING 61
SWIDTH 301 0
DWIDTH 10 0
BBX 8 5 1 2
BITMAP
7F
60
00
00
FE
ENDCHAR
STARTCHAR greater
ENCODING 62
SWIDTH 301 0
DWIDTH 10 0
BBX 8 6 1 2
BITMAP
40
30
0E
03
1C
E0
ENDCHAR
STARTCHAR question
ENCODING 63
SWIDTH 285 0
DWIDTH 9 0
BBX 10 16 2 0
BITMAP
0780
18C0
1040
0040
0040
0080
0100
0200
0C00
2000
2000
2000
0000
0000
C000
8000
ENDCHAR
STARTCHAR at
ENCODING 64
SWIDTH 492 0
DWIDTH 16 0
BBX 12 15 2 -3
BITMAP
07C0
1860
2010
4010
4F90
9890
9110
9310
9520
9940
8080
8000
4030
6020
3FC0
ENDCHAR
STARTCHAR A
ENCODING 65
SWIDTH 996 0
DWIDTH 32 0
BBX 31 21 1 0
BITMAP
00003FC0
0000407C
0001800E
0002000C
00020018
00040028
00040050
00000090
00000110
00000220
00000420
00000820
0001FFE0
00002020
40004060
40008040
80010040
40020060
600C0066
7070003C
3F800038
ENDCHAR
STARTCHAR B
ENCODING 66
SWIDTH 638 0
DWIDTH 20 0
BBX 20 22 1 0
BITMAP
000180
003F80
00C5C0
030860
041830
041010
003010
002010
002020
006040
004780
004180
00C040
008060
008020
010020
010020
C20020
740040
380040
0E0080
01FF00
ENDCHAR
STARTCHAR C
ENCODING 67
SWIDTH 557 0
DWIDTH 18 0
BBX 19 21 2 0
BITMAP
007F80
0180E0
060040
080040
100040
300000
200000
600000
400000
C00000
C00000
C00000
C00000
C00000
C00000
C00200
600200
600400
300400
180C00
07F000
ENDCHAR
STARTCHAR D
ENCODING 68
SWIDTH 799 0
DWIDTH 26 0
BBX 24 22 1 0
BITMAP
000008
007E30
0183C0
0200E0
040170
080138
080218
08020C
000406
000402
000402
000803
000801
000801
001001
001001
002001
004002
084002
7F8004
817008
FE0FF0
ENDCHAR
STARTCHAR E
ENCODING 69
SWIDTH 494 0
DWIDTH 16 0
BBX 15 21 2 0
BITMAP
00FC
0306
0402
0404
0400
0600
0300
0180
0E00
1000
2000
4000
4000
C000
C000
C004
C004
E008
6008
3010
1FE0
ENDCHAR
STARTCHAR F
ENCODING 70
SWIDTH 626 0
DWIDTH 20 0
BBX 25 21 2 0
BITMAP
000FE000
00301E00
00C03180
01006000
01004000
0000C000
00008000
00008000
00018000
00010000
000FF000
00710000
00020000
40020000
80040000
80040000
80080000
80100000
C0200000
60400000
3F800000
ENDCHAR
STARTCHAR G
ENCODING 71
SWIDTH 571 0
DWIDTH 18 0
BBX 23 27 -1 -6
BITMAP
00007C
000186
000602
000802
001004
002004
006000
004000
00C000
008000
008000
018000
018000
018060
018060
0180C0
00C1C0
00E6C0
601980
800180
800300
800200
800600
800C00
401800
602000
1FC000
ENDCHAR
STARTCHAR H
ENCODING 72
SWIDTH 865 0
DWIDTH 28 0
BBX 35 22 2 0
BITMAP
00000001E0
003F800620
0040C00820
0180801000
0101002000
0202004000
0202004000
0002008000
0004008000
0004018000
0004010000
000C010000
03FE020000
0C09FA0000
30180F8000
4010060000
8010040000
8020040000
8040040000
80800C8000
C1000F0000
7E00060000
ENDCHAR
STARTCHAR I
ENCODING 73
SWIDTH 554 0
DWIDTH 18 0
BBX 22 21 2 0
BITMAP
00003C
0000F0
0003A0
000640
000C40
001840
001080
002080
002080
002100
004100
004100
004200
002200
201400
400F00
800800
801000
802000
40C000
3F0000
ENDCHAR
STARTCHAR J
ENCODING 74
SWIDTH 634 0
DWIDTH 20 0
BBX 26 27 0 -6
BITMAP
000003C0
00000F00
00001A00
00002400
00004400
00008400
00010800
00010800
00020800
00020800
00021000
00021000
00021000
00021000
00012000
0180F000
0E002000
10004000
20004000
40008000
80010000
80020000
80020000
80040000
C0180000
60600000
3F800000
ENDCHAR
STARTCHAR K
ENCODING 75
SWIDTH 936 0
DWIDTH 30 0
BBX 30 21 2 0
BITMAP
001FC03C
00607044
00804184
01008200
02008400
02018800
02011000
04012000
04014000
04034000
00024000
00024000
00026000
40062000
80042000
80043000
80081000
80101800
80200C00
C0400620
7F8003C0
ENDCHAR
STARTCHAR L
ENCODING 76
SWIDTH 657 0
DWIDTH 21 0
BBX 22 21 1 0
BITMAP
000038
0000CC
000304
000204
000408
000400
000800
000800
000800
001000
001000
001000
001000
002000
002000
002000
004000
7E4020
838030
817040
7E1F80
ENDCHAR
STARTCHAR M
ENCODING 77
SWIDTH 1219 0
DWIDTH 39 0
BBX 40 21 1 0
BITMAP
0000FE0001
000303E006
000C00380C
0008003018
0010002070
00100060D0
001000C0A0
0000014120
0000014240
0000028440
2000048840
2000088840
4000091080
4000112080
C000214080
C000414080
C000838080
4003030080
600C030088
38300200D0
1FC0020060
ENDCHAR
STARTCHAR N
ENCODING 78
SWIDTH 990 0
DWIDTH 32 0
BBX 39 21 1 0
BITMAP
001F00000E
0021D00036
0040300022
0000180040
00002C0080
0000240100
0000260100
0000230200
0000410200
0000418400
0000408400
000080C400
6000804800
4001006800
8001006800
8002002800
8004003000
4004003000
6018001000
3CE0001000
1F80001000
ENDCHAR
STARTCHAR O
ENCODING 79
SWIDTH 606 0
DWIDTH 19 0
BBX 19 21 2 0
BITMAP
007E00
018300
060080
080040
100040
200020
400020
400020
400020
800020
800020
800040
800040
800040
800080
C00100
400100
600200
300400
181800
0FE000
ENDCHAR
STARTCHAR P
ENCODING 80
SWIDTH 783 0
DWIDTH 25 0
BBX 26 22 2 0
BITMAP
00000C00
0001FC00
00062F00
00186180
00204080
0040C0C0
00408040
00808040
00818040
00010040
00010080
00090080
00060100
00030200
6002BC00
80040000
80040000
80080000
80100000
C0200000
60400000
3F800000
ENDCHAR
STARTCHAR Q
ENCODING 81
SWIDTH 563 0
DWIDTH 18 0
BBX 23 26 2 -5
BITMAP
00FC00
03DF00
040380
080180
1001C0
2000C0
2000C0
2000C0
4000C0
4000C0
400080
400080
400100
400100
600200
300400
1E0800
003000
004000
828000
7C0000
0E0000
018000
007006
001C08
0007F0
ENDCHAR
STARTCHAR R
ENCODING 82
SWIDTH 854 0
DWIDTH 27 0
BBX 26 22 2 0
BITMAP
00003800
0003F800
000CDC00
00308600
00C18300
01010100
00030100
00020100
00060200
00060200
00040400
00049800
000CE000
00088000
20084000
40184000
80104000
80206000
80202000
80403040
41801880
3E000F00
ENDCHAR
STARTCHAR S
ENCODING 83
SWIDTH 480 0
DWIDTH 15 0
BBX 15 21 2 0
BITMAP
003C
00CE
0082
0102
0104
0100
0180
0080
00C0
0060
0020
0010
0010
0008
C008
8008
8008
8010
C010
6020
1FC0
ENDCHAR
STARTCHAR T
ENCODING 84
SWIDTH 577 0
DWIDTH 18 0
BBX 24 21 2 0
BITMAP
007FE0
01807E
02000F
040020
080020
080040
080080
080080
000180
000100
000100
000300
000200
000600
400400
800400
800800
801000
C02000
60C000
3F0000
ENDCHAR
STARTCHAR U
ENCODING 85
SWIDTH 752 0
DWIDTH 24 0
BBX 25 21 2 0
BITMAP
07F00180
08380100
30100200
40200200
40400400
80800400
80800800
81000800
81001800
82001000
82003000
02005000
04005000
0400A000
04012000
04012000
04022000
04042000
04082600
06103C00
03E03800
ENDCHAR
STARTCHAR V
ENCODING 86
SWIDTH 661 0
DWIDTH 21 0
BBX 22 21 2 0
BITMAP
078038
18C0C8
206004
402004
403004
801004
801004
801008
001008
001010
001010
001020
001040
001080
002100
002200
002C00
003800
003000
002000
004000
ENDCHAR
STARTCHAR W
ENCODING 87
SWIDTH 822 0
DWIDTH 26 0
BBX 28 21 2 0
BITMAP
0F000030
318020F0
40C03090
80404010
8060C010
80608010
80218010
80228020
00228020
00248040
00288040
00488080
0050C100
00504200
00604400
00A04800
00404800
00405000
00806000
00804000
01004000
ENDCHAR
STARTCHAR X
ENCODING 88
SWIDTH 813 0
DWIDTH 26 0
BBX 25 21 2 0
BITMAP
00300780
00700F80
00983080
00884080
01088100
00088000
00090000
000A0000
000E0000
00040000
00040000
000C0000
00140000
00160000
00220000
40230000
C0410000
80818000
81008100
E6006200
78003C00
ENDCHAR
STARTCHAR Y
ENCODING 89
SWIDTH 662 0
DWIDTH 21 0
BBX 28 25 0 -4
BITMAP
000E0030
00120020
00220060
00020040
000400C0
00040080
00040180
00040100
00080300
00080600
00080600
00100C00
00101800
0E102800
30105000
4010A000
800F2000
80004000
80008000
80010000
80010000
C0060000
40080000
30300000
1FC00000
ENDCHAR
STARTCHAR Z
ENCODING 90
SWIDTH 625 0
DWIDTH 20 0
BBX 21 21 2 0
BITMAP
007E00
0081C8
010070
020020
020040
000080
000100
000200
000400
001800
003000
004000
008000
010000
020000
040000
080040
100080
200100
7C0300
83FC00
ENDCHAR
STARTCHAR bracketleft
ENCODING 91
SWIDTH 318 0
DWIDTH 10 0
BBX 11 23 3 -3
BITMAP
07E0
0400
0C00
0C00
0800
0800
0800
1800
1000
1000
1000
3000
2000
2000
2000
6000
4000
4000
4000
C000
C000
8000
F800
ENDCHAR
STARTCHAR backslash
ENCODING 92
SWIDTH 212 0
DWIDTH 7 0
BBX 5 21 1 -1
BITMAP
80
80
80
80
80
40
40
40
40
40
20
20
20
20
20
10
10
10
10
10
08
ENDCHAR
STARTCHAR bracketright
ENCODING 93
SWIDTH 339 0
DWIDTH 11 0
BBX 12 23 0 -3
BITMAP
01F0
0020
0020
0060
0060
0040
0040
0040
00C0
0080
0080
0080
0180
0100
0100
0100
0300
0200
0200
0200
0600
0400
FC00
ENDCHAR
STARTCHAR asciicircum
ENCODING 94
SWIDTH 272 0
DWIDTH 9 0
BBX 7 6 1 6
BITMAP
08
14
14
24
46
82
ENDCHAR
STARTCHAR underscore
ENCODING 95
SWIDTH 356 0
DWIDTH 11 0
BBX 10 1 0 -2
BITMAP
FFC0
ENDCHAR
STARTCHAR grave
ENCODING 96
SWIDTH 155 0
DWIDTH 5 0
BBX 3 2 1 10
BITMAP
C0
20
ENDCHAR
STARTCHAR a
ENCODING 97
SWIDTH 294 0
DWIDTH 9 0
BBX 8 8 1 0
BITMAP
1F
22
42
42
84
8C
95
E6
ENDCHAR
STARTCHAR b
ENCODING 98
SWIDTH 247 0
DWIDTH 8 0
BBX 16 24 1 0
BITMAP
000E
0031
0041
0080
0100
0200
0400
0400
0800
0800
0800
1000
1000
2000
2000
2000
6C00
5200
6200
C400
C400
8800
9000
E000
ENDCHAR
STARTCHAR c
ENCODING 99
SWIDTH 203 0
DWIDTH 7 0
BBX 6 8 1 0
BITMAP
38
4C
80
80
80
88
90
E0
ENDCHAR
STARTCHAR d
ENCODING 100
SWIDTH 285 0
DWIDTH 9 0
BBX 19 24 1 0
BITMAP
0000E0
000120
000400
000C00
000800
001000
002000
002000
004000
004000
008000
008000
010000
010000
010000
020000
1E0000
660000
460000
840000
8C0000
940000
950000
E60000
ENDCHAR
STARTCHAR e
ENCODING 101
SWIDTH 206 0
DWIDTH 7 0
BBX 6 8 1 0
BITMAP
3C
64
48
F0
80
80
88
F0
ENDCHAR
STARTCHAR f
ENCODING 102
SWIDTH 156 0
DWIDTH 5 0
BBX 26 32 -9 -8
BITMAP
00000380
00000CC0
00001040
00002000
00004000
00004000
00008000
00008000
00010000
00010000
00020000
00020000
00020000
00040000
00040000
00040000
003F8000
00080000
00080000
00180000
00100000
00100000
00200000
00200000
00400000
00400000
00800000
00800000
01000000
82000000
84000000
F8000000
ENDCHAR
STARTCHAR g
ENCODING 103
SWIDTH 210 0
DWIDTH 7 0
BBX 11 17 -3 -8
BITMAP
0060
0780
0880
0880
0880
0900
0F00
0200
0200
0300
6100
8180
8080
8080
C080
6100
3E00
ENDCHAR
STARTCHAR h
ENCODING 104
SWIDTH 292 0
DWIDTH 9 0
BBX 17 24 1 0
BITMAP
000700
001980
006100
008000
008000
010000
020000
020000
040000
040000
080000
080000
100000
100000
100000
200000
270000
3B0000
620000
660000
440000
440000
850000
860000
ENDCHAR
STARTCHAR i
ENCODING 105
SWIDTH 149 0
DWIDTH 5 0
BBX 6 12 1 0
BITMAP
04
08
10
00
20
E0
40
40
80
80
A0
C0
ENDCHAR
STARTCHAR j
ENCODING 106
SWIDTH 136 0
DWIDTH 4 0
BBX 16 20 -9 -8
BITMAP
0001
0002
0004
0000
0008
0038
0018
0010
0010
0010
0020
0020
0060
0040
0080
0080
0100
8200
8400
F800
ENDCHAR
STARTCHAR k
ENCODING 107
SWIDTH 259 0
DWIDTH 8 0
BBX 17 24 1 0
BITMAP
000F00
001180
006100
008000
010000
010000
020000
040000
040000
080000
080000
100000
100000
100000
200000
200000
2E0000
720000
420000
5C0000
500000
900000
980000
8E0000
ENDCHAR
STARTCHAR l
ENCODING 108
SWIDTH 134 0
DWIDTH 4 0
BBX 14 24 1 0
BITMAP
001C
0034
0044
0080
0100
0200
0400
0400
0800
0800
1000
1000
2000
2000
2000
4000
4000
4000
4000
8000
8000
8000
A000
C000
ENDCHAR
STARTCHAR m
ENCODING 109
SWIDTH 413 0
DWIDTH 13 0
BBX 12 8 1 0
BITMAP
6660
BBA0
2220
6220
4440
4440
8850
8860
ENDCHAR
STARTCHAR n
ENCODING 110
SWIDTH 291 0
DWIDTH 9 0
BBX 8 8 1 0
BITMAP
23
ED
32
22
44
44
85
86
ENDCHAR
STARTCHAR o
ENCODING 111
SWIDTH 225 0
DWIDTH 7 0
BBX 6 8 1 0
BITMAP
18
64
44
84
88
88
90
60
ENDCHAR
STARTCHAR p
ENCODING 112
SWIDTH 261 0
DWIDTH 8 0
BBX 9 17 -1 -8
BITMAP
0C00
1B80
0C80
1880
1080
1100
2100
2200
3C00
4000
4000
4000
4000
8000
8000
8000
E000
ENDCHAR
STARTCHAR q
ENCODING 113
SWIDTH 269 0
DWIDTH 9 0
BBX 9 16 1 -8
BITMAP
0F80
3300
4200
8600
8400
8C00
9800
E800
0800
1000
1000
1000
3000
3000
2000
3800
ENDCHAR
STARTCHAR r
ENCODING 114
SWIDTH 195 0
DWIDTH 6 0
BBX 7 8 1 0
BITMAP
6E
B4
20
20
40
40
80
80
ENDCHAR
STARTCHAR s
ENCODING 115
SWIDTH 188 0
DWIDTH 6 0
BBX 6 8 0 0
BITMAP
1C
24
20
10
18
88
88
F0
ENDCHAR
STARTCHAR t
ENCODING 116
SWIDTH 171 0
DWIDTH 5 0
BBX 6 12 1 0
BITMAP
08
10
10
20
FC
60
40
40
80
80
90
E0
ENDCHAR
STARTCHAR u
ENCODING 117
SWIDTH 299 0
DWIDTH 10 0
BBX 8 8 1 0
BITMAP
21
42
C2
8C
8C
94
A5
C6
ENDCHAR
STARTCHAR v
ENCODING 118
SWIDTH 271 0
DWIDTH 9 0
BBX 8 8 1 0
BITMAP
63
A5
21
42
42
4C
90
E0
ENDCHAR
STARTCHAR w
ENCODING 119
SWIDTH 369 0
DWIDTH 12 0
BBX 11 8 1 0
BITMAP
6060
A6A0
2420
3C20
3440
2C40
2C80
4700
ENDCHAR
STARTCHAR x
ENCODING 120
SWIDTH 263 0
DWIDTH 8 0
BBX 8 8 0 0
BITMAP
33
55
18
10
10
98
E9
86
ENDCHAR
STARTCHAR y
ENCODING 121
SWIDTH 280 0
DWIDTH 9 0
BBX 15 16 -6 -8
BITMAP
0042
0182
0084
008C
0108
0138
0148
0190
0010
0030
0020
C040
8040
8080
4100
3E00
ENDCHAR
STARTCHAR z
ENCODING 122
SWIDTH 238 0
DWIDTH 8 0
BBX 8 8 0 0
BITMAP
3F
46
08
10
20
42
44
BC
ENDCHAR
STARTCHAR braceleft
ENCODING 123
SWIDTH 291 0
DWIDTH 9 0
BBX 9 23 3 -3
BITMAP
0180
0600
0800
0800
0800
0800
0800
1000
1000
1000
2000
C000
2000
2000
2000
2000
4000
4000
C000
8000
8000
C000
7000
ENDCHAR
STARTCHAR bar
ENCODING 124
SWIDTH 162 0
DWIDTH 5 0
BBX 1 29 2 -8
BITMAP
80
80
80
80
80
80
80
80
80
80
80
80
80
80
80
80
80
80
80
80
80
80
80
80
80
80
80
80
80
ENDCHAR
STARTCHAR braceright
ENCODING 125
SWIDTH 285 0
DWIDTH 9 0
BBX 10 23 0 -3
BITMAP
0380
00C0
0040
0040
00C0
0080
0080
0180
0100
0100
0100
0080
0100
0200
0400
0400
0400
0400
0C00
0800
0800
1000
E000
ENDCHAR
STARTCHAR asciitilde
ENCODING 126
SWIDTH 383 0
DWIDTH 12 0
BBX 10 2 2 4
BITMAP
78C0
8F00
ENDCHAR
STARTCHAR space.dup1
ENCODING 160
SWIDTH 150 0
DWIDTH 5 0
BBX 1 1 0 0
BITMAP
00
ENDCHAR
STARTCHAR exclamdown
ENCODING 161
SWIDTH 189 0
DWIDTH 6 0
BBX 8 17 -2 -9
BITMAP
01
02
00
00
04
04
08
08
10
10
10
20
20
60
40
C0
80
ENDCHAR
STARTCHAR cent
ENCODING 162
SWIDTH 194 0
DWIDTH 6 0
BBX 7 14 0 -2
BITMAP
06
04
1E
2A
48
50
50
50
60
78
40
40
80
80
ENDCHAR
STARTCHAR sterling
ENCODING 163
SWIDTH 344 0
DWIDTH 11 0
BBX 10 10 0 0
BITMAP
00C0
0340
0440
0400
0400
3B80
0800
0800
7840
EF80
ENDCHAR
STARTCHAR currency
ENCODING 164
SWIDTH 344 0
DWIDTH 11 0
BBX 11 10 0 0
BITMAP
3020
1FC0
1080
2080
2080
2080
2100
1200
6D00
8100
ENDCHAR
STARTCHAR yen
ENCODING 165
SWIDTH 309 0
DWIDTH 10 0
BBX 10 10 1 0
BITMAP
6180
A640
1800
1000
7C00
1000
1000
FC00
2000
3000
ENDCHAR
STARTCHAR brokenbar
ENCODING 166
SWIDTH 162 0
DWIDTH 5 0
BBX 1 29 2 -8
BITMAP
80
80
80
80
80
80
80
80
80
80
80
00
00
00
00
00
00
00
80
80
80
80
80
80
80
80
80
80
80
ENDCHAR
STARTCHAR section
ENCODING 167
SWIDTH 395 0
DWIDTH 13 0
BBX 17 25 -2 -8
BITMAP
000600
003B00
00E080
00C080
014080
014100
014000
014000
014000
016000
012000
01A000
00A000
00B000
009000
00D000
005000
005000
405000
805000
806000
806000
C0C000
618000
3C0000
ENDCHAR
STARTCHAR dieresis
ENCODING 168
SWIDTH 174 0
DWIDTH 6 0
BBX 5 2 0 10
BITMAP
48
D8
ENDCHAR
STARTCHAR copyright
ENCODING 169
SWIDTH 331 0
DWIDTH 11 0
BBX 8 8 2 4
BITMAP
0C
22
DD
A5
C1
C2
BA
7C
ENDCHAR
STARTCHAR ordfeminine
ENCODING 170
SWIDTH 226 0
DWIDTH 7 0
BBX 4 4 2 6
BITMAP
70
A0
A0
F0
ENDCHAR
STARTCHAR guillemotleft
ENCODING 171
SWIDTH 289 0
DWIDTH 9 0
BBX 9 8 1 0
BITMAP
0D80
1200
2400
4800
9000
4800
2400
1600
ENDCHAR
STARTCHAR logicalnot
ENCODING 172
SWIDTH 265 0
DWIDTH 8 0
BBX 7 4 1 4
BITMAP
FE
02
04
04
ENDCHAR
STARTCHAR registered
ENCODING 174
SWIDTH 331 0
DWIDTH 11 0
BBX 8 8 2 4
BITMAP
1C
62
B9
A9
B1
B2
CA
7C
ENDCHAR
STARTCHAR degree
ENCODING 176
SWIDTH 104 0
DWIDTH 3 0
BBX 4 4 2 9
BITMAP
70
90
90
E0
ENDCHAR
STARTCHAR plusminus
ENCODING 177
SWIDTH 301 0
DWIDTH 10 0
BBX 9 8 0 0
BITMAP
0200
0400
0400
3F80
0800
0800
0800
FE00
ENDCHAR
STARTCHAR twosuperior
ENCODING 178
SWIDTH 215 0
DWIDTH 7 0
BBX 5 5 1 5
BITMAP
38
48
10
20
F8
ENDCHAR
STARTCHAR threesuperior
ENCODING 179
SWIDTH 190 0
DWIDTH 6 0
BBX 4 5 1 5
BITMAP
30
10
70
10
E0
ENDCHAR
STARTCHAR acute
ENCODING 180
SWIDTH 157 0
DWIDTH 5 0
BBX 3 3 1 10
BITMAP
20
40
80
ENDCHAR
STARTCHAR mu
ENCODING 181
SWIDTH 324 0
DWIDTH 10 0
BBX 11 13 0 -5
BITMAP
0860
1040
1080
2180
2280
2280
65A0
58C0
4000
8000
8000
8000
8000
ENDCHAR
STARTCHAR paragraph
ENCODING 182
SWIDTH 392 0
DWIDTH 13 0
BBX 16 18 -3 -8
BITMAP
001F
0074
01F4
03E8
07E8
07E8
07C8
07D0
03D0
01D0
00A0
01A0
01C0
4140
8380
8300
8600
7800
ENDCHAR
STARTCHAR periodcentered
ENCODING 183
SWIDTH 112 0
DWIDTH 4 0
BBX 2 2 1 4
BITMAP
C0
80
ENDCHAR
STARTCHAR cedilla
ENCODING 184
SWIDTH 115 0
DWIDTH 4 0
BBX 2 4 1 -4
BITMAP
40
40
80
80
ENDCHAR
STARTCHAR onesuperior
ENCODING 185
SWIDTH 174 0
DWIDTH 6 0
BBX 3 5 2 5
BITMAP
E0
40
80
80
80
ENDCHAR
STARTCHAR ordmasculine
ENCODING 186
SWIDTH 178 0
DWIDTH 6 0
BBX 3 4 2 6
BITMAP
60
A0
A0
C0
ENDCHAR
STARTCHAR guillemotright
ENCODING 187
SWIDTH 276 0
DWIDTH 9 0
BBX 9 8 -1 0
BITMAP
3600
1200
0900
0480
0900
1200
4400
9800
ENDCHAR
STARTCHAR onequarter
ENCODING 188
SWIDTH 435 0
DWIDTH 14 0
BBX 12 12 2 -1
BITMAP
0040
1080
7100
2100
2230
4440
49C0
9680
27C0
4080
4100
8000
ENDCHAR
STARTCHAR onehalf
ENCODING 189
SWIDTH 434 0
DWIDTH 14 0
BBX 11 12 2 -1
BITMAP
0040
1080
7100
2100
2240
45A0
4920
9020
20C0
4100
47E0
8000
ENDCHAR
STARTCHAR threequarters
ENCODING 190
SWIDTH 476 0
DWIDTH 15 0
BBX 13 12 2 -1
BITMAP
0010
3020
D040
1080
7108
1230
9460
E8A0
0970
10C0
2040
4000
ENDCHAR
STARTCHAR questiondown
ENCODING 191
SWIDTH 285 0
DWIDTH 9 0
BBX 10 16 -1 -8
BITMAP
0040
0080
0000
0000
0100
0100
0200
0400
1800
2000
4000
8000
8000
8200
C400
7800
ENDCHAR
STARTCHAR Agrave
ENCODING 192
SWIDTH 996 0
DWIDTH 32 0
BBX 31 24 1 0
BITMAP
00000018
00000004
00000002
00003FC0
0000407C
0001800E
0002000C
00020018
00040028
00040050
00000090
00000110
00000220
00000420
00000820
0001FFE0
00002020
40004060
40008040
80010040
40020060
600C0066
7070003C
3F800038
ENDCHAR
STARTCHAR Aacute
ENCODING 193
SWIDTH 996 0
DWIDTH 32 0
BBX 32 24 1 0
BITMAP
00000003
0000000C
00000000
00003FC0
0000407C
0001800E
0002000C
00020018
00040028
00040050
00000090
00000110
00000220
00000420
00000820
0001FFE0
00002020
40004060
40008040
80010040
40020060
600C0066
7070003C
3F800038
ENDCHAR
STARTCHAR Acircumflex
ENCODING 194
SWIDTH 996 0
DWIDTH 32 0
BBX 33 24 1 0
BITMAP
0000000600
0000000980
0000001000
00003FC000
0000407C00
0001800E00
0002000C00
0002001800
0004002800
0004005000
0000009000
0000011000
0000022000
0000042000
0000082000
0001FFE000
0000202000
4000406000
4000804000
8001004000
4002006000
600C006600
7070003C00
3F80003800
ENDCHAR
STARTCHAR Atilde
ENCODING 195
SWIDTH 996 0
DWIDTH 32 0
BBX 34 24 1 0
BITMAP
0000000C40
0000001E80
0000001300
00003FC000
0000407C00
0001800E00
0002000C00
0002001800
0004002800
0004005000
0000009000
0000011000
0000022000
0000042000
0000082000
0001FFE000
0000202000
4000406000
4000804000
8001004000
4002006000
600C006600
7070003C00
3F80003800
ENDCHAR
STARTCHAR Adieresis
ENCODING 196
SWIDTH 996 0
DWIDTH 32 0
BBX 32 24 1 0
BITMAP
00000005
00000005
00000000
00003FC0
0000407C
0001800E
0002000C
00020018
00040028
00040050
00000090
00000110
00000220
00000420
00000820
0001FFE0
00002020
40004060
40008040
80010040
40020060
600C0066
7070003C
3F800038
ENDCHAR
STARTCHAR Aring
ENCODING 197
SWIDTH 996 0
DWIDTH 32 0
BBX 32 25 1 0
BITMAP
00000002
00000005
00000005
00000004
00003FC0
0000407C
0001800E
0002000C
00020018
00040028
00040050
00000090
00000110
00000220
00000420
00000820
0001FFE0
00002020
40004060
40008040
80010040
40020060
600C0066
7070003C
3F800038
ENDCHAR
STARTCHAR AE
ENCODING 198
SWIDTH 1271 0
DWIDTH 41 0
BBX 42 21 1 0
BITMAP
00003FC01F00
0000C07C6080
0001000E80C0
0002000C8080
0002001C8000
000400288000
000400484000
000000903000
00000113C000
000002140000
000004180000
000008100000
0000FFE00000
000120200000
400040200000
400080200200
800100200200
400200200400
400C00300400
707000180800
3F80000FF000
ENDCHAR
STARTCHAR Ccedilla
ENCODING 199
SWIDTH 557 0
DWIDTH 18 0
BBX 18 24 2 -3
BITMAP
007F80
0180C0
060040
080040
100000
300000
200000
600000
400000
C00000
C00000
C00000
C00000
C00000
C00000
600200
600200
300200
180400
041C00
03E000
010000
018000
010000
ENDCHAR
STARTCHAR Egrave
ENCODING 200
SWIDTH 463 0
DWIDTH 15 0
BBX 15 24 1 0
BITMAP
0030
000C
0000
00FC
0306
0402
0404
0400
0600
0300
0180
0E00
1000
2000
4000
4000
C000
C000
C004
C004
E008
6008
3010
1FE0
ENDCHAR
STARTCHAR Eacute
ENCODING 201
SWIDTH 463 0
DWIDTH 15 0
BBX 15 24 1 0
BITMAP
000C
0030
0000
00FC
0306
0402
0404
0400
0600
0300
0180
0E00
1000
2000
4000
4000
C000
C000
C004
C004
E008
6008
3010
1FE0
ENDCHAR
STARTCHAR Ecircumflex
ENCODING 202
SWIDTH 463 0
DWIDTH 15 0
BBX 15 24 1 0
BITMAP
0018
006C
0000
00FC
0306
0402
0404
0400
0600
0300
0180
0E00
1000
2000
4000
4000
C000
C000
C004
C004
E008
6008
3010
1FE0
ENDCHAR
STARTCHAR Edieresis
ENCODING 203
SWIDTH 463 0
DWIDTH 15 0
BBX 15 24 1 0
BITMAP
0014
0014
0000
00FC
0306
0402
0404
0400
0600
0300
0180
0E00
1000
2000
4000
4000
C000
C000
C004
C004
E008
6008
3010
1FE0
ENDCHAR
STARTCHAR Igrave
ENCODING 204
SWIDTH 514 0
DWIDTH 16 0
BBX 22 23 0 0
BITMAP
0001C0
000030
00003C
0000F0
0003A0
000640
000C40
001840
001080
002080
002080
002100
004100
004100
004200
002200
201400
400E00
800800
801000
802000
C0C000
7F0000
ENDCHAR
STARTCHAR Iacute
ENCODING 205
SWIDTH 514 0
DWIDTH 16 0
BBX 22 24 0 0
BITMAP
000018
000060
000080
00003C
0000F0
0003A0
000640
000C40
001840
001080
002080
002080
002100
004100
004100
004200
002200
201400
400E00
800800
801000
802000
C0C000
7F0000
ENDCHAR
STARTCHAR Icircumflex
ENCODING 206
SWIDTH 514 0
DWIDTH 16 0
BBX 22 24 0 0
BITMAP
000030
0000C8
000004
00003C
0000F0
0003A0
000640
000C40
001840
001080
002080
002080
002100
004100
004100
004200
002200
201400
400E00
800800
801000
802000
C0C000
7F0000
ENDCHAR
STARTCHAR Idieresis
ENCODING 207
SWIDTH 514 0
DWIDTH 16 0
BBX 22 24 0 0
BITMAP
000028
000028
000000
00003C
0000F0
0003A0
000640
000C40
001840
001080
002080
002080
002100
004100
004100
004200
002200
201400
400E00
800800
801000
802000
C0C000
7F0000
ENDCHAR
STARTCHAR Eth
ENCODING 208
SWIDTH 800 0
DWIDTH 26 0
BBX 24 22 1 0
BITMAP
000008
007E30
0183C0
0600E0
040130
080218
080208
000204
000406
000402
000402
000803
003F81
00C801
001001
001001
002001
002002
004002
7F8004
816008
FE1FF0
ENDCHAR
STARTCHAR Ntilde
ENCODING 209
SWIDTH 796 0
DWIDTH 25 0
BBX 39 24 -5 0
BITMAP
0000003300
0000007A00
0000009C00
001F00000E
0021D00036
0040300022
0000180040
00002C0080
0000240100
0000260100
0000230200
0000410200
0000418400
0000408400
000080C400
6000804800
8001006800
8001006800
8002002800
8004003000
400C003000
6010001000
3CE0001000
1F80001000
ENDCHAR
STARTCHAR Ograve
ENCODING 210
SWIDTH 608 0
DWIDTH 19 0
BBX 19 24 2 0
BITMAP
003000
000800
000400
007E00
018300
060080
080040
100040
200020
400020
400020
400020
800020
800020
800040
800040
800040
800080
C00100
400100
600200
300400
181800
0FE000
ENDCHAR
STARTCHAR Oacute
ENCODING 211
SWIDTH 608 0
DWIDTH 19 0
BBX 19 24 2 0
BITMAP
000C00
003000
000000
007E00
018300
060080
080040
100040
200020
400020
400020
400020
800020
800020
800040
800040
800040
800080
C00100
400100
600200
300400
181800
0FE000
ENDCHAR
STARTCHAR Ocircumflex
ENCODING 212
SWIDTH 608 0
DWIDTH 19 0
BBX 19 24 2 0
BITMAP
001C00
002600
000000
007E00
018300
060080
080040
100040
200020
400020
400020
400020
800020
800020
800040
800040
800040
800080
C00100
400100
600200
300400
181800
0FE000
ENDCHAR
STARTCHAR Otilde
ENCODING 213
SWIDTH 608 0
DWIDTH 19 0
BBX 19 24 2 0
BITMAP
003100
007E00
008000
007E00
018300
060080
080040
100040
200020
400020
400020
400020
800020
800020
800040
800040
800040
800080
C00100
400100
600200
300400
181800
0FE000
ENDCHAR
STARTCHAR Odieresis
ENCODING 214
SWIDTH 608 0
DWIDTH 19 0
BBX 19 24 2 0
BITMAP
001400
001400
000000
007E00
018300
060080
080040
100040
200020
400020
400020
400020
800020
800020
800040
800040
800040
800080
C00100
400100
600200
300400
181800
0FE000
ENDCHAR
STARTCHAR multiply
ENCODING 215
SWIDTH 301 0
DWIDTH 10 0
BBX 8 7 1 1
BITMAP
21
12
14
08
18
64
C4
ENDCHAR
STARTCHAR Oslash
ENCODING 216
SWIDTH 605 0
DWIDTH 19 0
BBX 19 22 2 -1
BITMAP
007E80
018300
060380
1004C0
100440
200860
401020
402020
802020
804020
808020
810040
810040
820040
840080
C40080
480100
700200
300400
3C1800
4FE000
800000
ENDCHAR
STARTCHAR Ugrave
ENCODING 217
SWIDTH 717 0
DWIDTH 23 0
BBX 25 23 1 0
BITMAP
0001C000
00003000
07F00180
08380100
30100200
40200200
40400400
80800400
80800800
81000800
81001800
82001000
82003000
02005000
04005000
0400A000
04012000
04012000
04022000
04042000
04082600
06103C00
03E03800
ENDCHAR
STARTCHAR Uacute
ENCODING 218
SWIDTH 717 0
DWIDTH 23 0
BBX 25 24 1 0
BITMAP
00001000
00001800
00006000
07F00180
08380100
30100200
40200200
40400400
80800400
80800800
81000800
81001800
82001000
82003000
02005000
04005000
0400A000
04012000
04012000
04022000
04042000
04082600
06103C00
03E03800
ENDCHAR
STARTCHAR Ucircumflex
ENCODING 219
SWIDTH 718 0
DWIDTH 23 0
BBX 25 24 1 0
BITMAP
00002000
00007000
00009800
07F10180
08380100
30100300
40200200
40400600
80800400
80800C00
81000800
81001800
82001800
82003000
02003000
04007000
04005000
0400A000
04012000
04032000
04022000
040C2600
02183C00
03E03800
ENDCHAR
STARTCHAR Udieresis
ENCODING 220
SWIDTH 718 0
DWIDTH 23 0
BBX 25 24 1 0
BITMAP
00005000
00005000
00000000
07F00180
08380100
30100200
40200200
40400400
80800400
80800800
81000800
81001800
82001000
82003000
02005000
04005000
0400A000
04012000
04012000
04022000
04042000
04082600
06103C00
03E03800
ENDCHAR
STARTCHAR Yacute
ENCODING 221
SWIDTH 662 0
DWIDTH 21 0
BBX 28 27 0 -4
BITMAP
00000600
00000800
000E1030
00120020
00220060
00020040
000400C0
00040080
00040180
00040100
00080300
00080600
00080600
00100C00
00101800
0E102800
30105000
4010A000
800F2000
80004000
80008000
80010000
80010000
C0060000
40080000
30300000
1FC00000
ENDCHAR
STARTCHAR Thorn
ENCODING 222
SWIDTH 745 0
DWIDTH 24 0
BBX 23 22 2 0
BITMAP
000004
000018
000020
000040
000040
0003F0
000CC8
001084
002182
002182
000102
000102
000302
400204
800608
800C10
800560
800800
801000
C02000
604000
3F8000
ENDCHAR
STARTCHAR germandbls
ENCODING 223
SWIDTH 304 0
DWIDTH 10 0
BBX 27 31 -11 -8
BITMAP
000001C0
00000E20
00001020
00002020
00004020
00004060
00008040
00008080
00010300
00010400
00021800
00023000
00026000
0002C000
00048000
00048000
00048000
00044000
00084000
00082000
00082000
00122000
0013C000
00100000
00200000
00200000
00400000
00800000
81000000
82000000
7C000000
ENDCHAR
STARTCHAR agrave
ENCODING 224
SWIDTH 294 0
DWIDTH 9 0
BBX 8 12 1 0
BITMAP
0C
02
01
00
1F
22
42
42
84
8C
95
E6
ENDCHAR
STARTCHAR aacute
ENCODING 225
SWIDTH 294 0
DWIDTH 9 0
BBX 8 13 1 0
BITMAP
01
02
04
00
00
1F
22
42
42
84
8C
95
E6
ENDCHAR
STARTCHAR acircumflex
ENCODING 226
SWIDTH 294 0
DWIDTH 9 0
BBX 9 13 1 0
BITMAP
0200
0D00
0080
0000
0000
1F00
2200
4200
4200
8400
8C00
9500
E600
ENDCHAR
STARTCHAR atilde
ENCODING 227
SWIDTH 294 0
DWIDTH 9 0
BBX 9 12 1 0
BITMAP
0D80
1700
0000
0000
1F00
2200
4200
4200
8400
8C00
9500
E600
ENDCHAR
STARTCHAR adieresis
ENCODING 228
SWIDTH 284 0
DWIDTH 9 0
BBX 8 12 1 0
BITMAP
09
1B
00
00
1F
22
42
42
84
8C
95
E6
ENDCHAR
STARTCHAR aring
ENCODING 229
SWIDTH 294 0
DWIDTH 9 0
BBX 8 13 1 0
BITMAP
07
0B
0B
0E
00
1F
22
42
42
84
8C
95
E6
ENDCHAR
STARTCHAR ae
ENCODING 230
SWIDTH 363 0
DWIDTH 12 0
BBX 10 9 1 0
BITMAP
0100
1EC0
6340
4640
8780
8C00
9400
A440
C780
ENDCHAR
STARTCHAR ccedilla
ENCODING 231
SWIDTH 203 0
DWIDTH 7 0
BBX 6 12 1 -4
BITMAP
38
4C
80
80
80
88
90
E0
40
40
40
80
ENDCHAR
STARTCHAR egrave
ENCODING 232
SWIDTH 206 0
DWIDTH 7 0
BBX 6 12 1 0
BITMAP
18
04
00
00
3C
64
48
F0
80
80
88
F0
ENDCHAR
STARTCHAR eacute
ENCODING 233
SWIDTH 206 0
DWIDTH 7 0
BBX 7 13 1 0
BITMAP
06
04
18
00
00
3C
64
48
F0
80
80
88
F0
ENDCHAR
STARTCHAR ecircumflex
ENCODING 234
SWIDTH 206 0
DWIDTH 7 0
BBX 7 13 1 0
BITMAP
08
36
00
00
00
3C
64
48
F0
80
80
88
F0
ENDCHAR
STARTCHAR edieresis
ENCODING 235
SWIDTH 206 0
DWIDTH 7 0
BBX 7 12 1 0
BITMAP
36
24
00
00
3C
64
48
F0
80
80
88
F0
ENDCHAR
STARTCHAR igrave
ENCODING 236
SWIDTH 149 0
DWIDTH 5 0
BBX 5 12 1 0
BITMAP
70
08
00
00
20
E0
40
40
80
80
A0
C0
ENDCHAR
STARTCHAR iacute
ENCODING 237
SWIDTH 149 0
DWIDTH 5 0
BBX 6 13 1 0
BITMAP
0C
08
10
20
00
20
E0
40
40
80
80
A0
C0
ENDCHAR
STARTCHAR icircumflex
ENCODING 238
SWIDTH 149 0
DWIDTH 5 0
BBX 6 13 1 0
BITMAP
18
2C
40
00
00
20
E0
40
40
80
80
A0
C0
ENDCHAR
STARTCHAR idieresis
ENCODING 239
SWIDTH 149 0
DWIDTH 5 0
BBX 6 12 1 0
BITMAP
24
6C
00
00
20
E0
40
40
80
80
A0
C0
ENDCHAR
STARTCHAR eth
ENCODING 240
SWIDTH 234 0
DWIDTH 7 0
BBX 6 21 1 0
BITMAP
40
40
40
40
60
3C
10
68
88
08
04
04
04
3C
44
84
84
88
88
90
E0
ENDCHAR
STARTCHAR ntilde
ENCODING 241
SWIDTH 291 0
DWIDTH 9 0
BBX 9 12 1 0
BITMAP
0D80
1700
0000
0000
2300
ED00
3200
2200
4400
4400
8500
8600
ENDCHAR
STARTCHAR ograve
ENCODING 242
SWIDTH 225 0
DWIDTH 7 0
BBX 7 12 1 0
BITMAP
18
04
02
00
18
64
44
84
88
88
90
60
ENDCHAR
STARTCHAR oacute
ENCODING 243
SWIDTH 225 0
DWIDTH 7 0
BBX 7 13 1 0
BITMAP
06
04
08
10
00
18
64
44
84
88
88
90
60
ENDCHAR
STARTCHAR ocircumflex
ENCODING 244
SWIDTH 225 0
DWIDTH 7 0
BBX 8 13 1 0
BITMAP
04
1B
00
00
00
18
64
44
84
88
88
90
60
ENDCHAR
STARTCHAR otilde
ENCODING 245
SWIDTH 225 0
DWIDTH 7 0
BBX 8 12 1 0
BITMAP
1B
2E
00
00
18
64
44
84
88
88
90
60
ENDCHAR
STARTCHAR odieresis
ENCODING 246
SWIDTH 225 0
DWIDTH 7 0
BBX 7 12 1 0
BITMAP
36
24
00
00
18
64
44
84
88
88
90
60
ENDCHAR
STARTCHAR divide
ENCODING 247
SWIDTH 301 0
DWIDTH 10 0
BBX 7 5 2 2
BITMAP
18
00
FE
00
20
ENDCHAR
STARTCHAR oslash
ENCODING 248
SWIDTH 225 0
DWIDTH 7 0
BBX 8 10 0 -1
BITMAP
01
0E
36
2A
4A
54
64
68
70
80
ENDCHAR
STARTCHAR ugrave
ENCODING 249
SWIDTH 299 0
DWIDTH 10 0
BBX 8 12 1 0
BITMAP
0E
03
00
00
21
42
C2
8C
8C
94
A5
C6
ENDCHAR
STARTCHAR uacute
ENCODING 250
SWIDTH 299 0
DWIDTH 10 0
BBX 8 13 1 0
BITMAP
01
03
04
00
00
21
42
C2
8C
8C
94
A5
C6
ENDCHAR
STARTCHAR ucircumflex
ENCODING 251
SWIDTH 299 0
DWIDTH 10 0
BBX 9 13 1 0
BITMAP
0200
0D80
0000
0000
0000
2100
4200
C200
8C00
8C00
9400
A500
C600
ENDCHAR
STARTCHAR udieresis
ENCODING 252
SWIDTH 299 0
DWIDTH 10 0
BBX 8 12 1 0
BITMAP
09
1B
00
00
21
42
C2
8C
8C
94
A5
C6
ENDCHAR
STARTCHAR yacute
ENCODING 253
SWIDTH 280 0
DWIDTH 9 0
BBX 16 21 -6 -8
BITMAP
0003
0006
0008
0000
0000
0042
0182
0084
008C
0108
0138
0148
0190
0010
0030
0020
C040
8040
8080
4100
3E00
ENDCHAR
STARTCHAR thorn
ENCODING 254
SWIDTH 261 0
DWIDTH 8 0
BBX 9 23 -1 -8
BITMAP
0300
0500
0200
0200
0200
0400
0400
0B80
0C80
0880
1080
1180
2100
2200
3C00
4000
4000
4000
4000
8000
8000
8000
E000
ENDCHAR
STARTCHAR ydieresis
ENCODING 255
SWIDTH 280 0
DWIDTH 9 0
BBX 15 20 -6 -8
BITMAP
0012
0036
0000
0000
0042
0182
0084
008C
0108
0138
0148
0190
0010
0030
0020
C040
8040
8080
4100
3E00
ENDCHAR
STARTCHAR dotlessi
ENCODING 305
SWIDTH 149 0
DWIDTH 5 0
BBX 3 8 1 0
BITMAP
20
E0
40
40
80
80
A0
C0
ENDCHAR
STARTCHAR Lslash
ENCODING 321
SWIDTH 657 0
DWIDTH 21 0
BBX 22 21 1 0
BITMAP
00003C
0000CC
000304
000204
000408
000400
000800
000800
000980
000E00
007000
009000
001000
001000
002000
002000
004000
7E4020
818030
837040
7C1F80
ENDCHAR
STARTCHAR lslash
ENCODING 322
SWIDTH 134 0
DWIDTH 4 0
BBX 14 24 1 0
BITMAP
001C
0024
0044
0180
0100
0200
0400
0400
0800
0A00
1400
7000
2000
2000
2000
4000
4000
4000
4000
8000
8000
8000
A000
C000
ENDCHAR
STARTCHAR OE
ENCODING 338
SWIDTH 827 0
DWIDTH 26 0
BBX 26 21 2 0
BITMAP
007E1F80
018360C0
06018040
08008080
10008000
2000C000
40006000
40003000
4001C000
80060000
80080000
80180000
80100000
80300000
80300000
80300100
C0300100
60380200
20180200
383C0400
0FC3F800
ENDCHAR
STARTCHAR oe
ENCODING 339
SWIDTH 345 0
DWIDTH 11 0
BBX 10 8 1 0
BITMAP
19C0
6640
4480
8700
8400
8C00
8C80
7700
ENDCHAR
STARTCHAR Scaron
ENCODING 352
SWIDTH 480 0
DWIDTH 15 0
BBX 15 24 2 0
BITMAP
0076
0018
0000
003C
00CE
0082
0102
0104
0100
0180
0080
00C0
0060
0020
0010
0010
0008
C008
8008
8008
8010
C010
6020
1FC0
ENDCHAR
STARTCHAR scaron
ENCODING 353
SWIDTH 188 0
DWIDTH 6 0
BBX 8 13 0 0
BITMAP
13
0C
00
00
00
1C
24
20
10
18
88
88
F0
ENDCHAR
STARTCHAR Ydieresis
ENCODING 376
SWIDTH 662 0
DWIDTH 21 0
BBX 28 28 0 -4
BITMAP
00001400
00001400
00000000
000E0030
00120020
00220060
00020040
000400C0
00040080
00040180
00040100
00080300
00080600
00080600
00100C00
00101800
0E102800
30105000
4010A000
800F2000
80004000
80008000
80010000
80010000
C0060000
40080000
30300000
1FC00000
ENDCHAR
STARTCHAR Zcaron
ENCODING 381
SWIDTH 625 0
DWIDTH 20 0
BBX 21 24 2 0
BITMAP
000EC0
000300
000000
007E00
0081C8
010070
020020
020040
000080
000100
000200
000400
001800
003000
004000
008000
010000
020000
040000
080040
100080
200100
7C0300
83FC00
ENDCHAR
STARTCHAR zcaron
ENCODING 382
SWIDTH 248 0
DWIDTH 8 0
BBX 9 13 0 0
BITMAP
0980
0600
0000
0000
0000
3F00
4400
0800
1000
2000
4200
4400
BC00
ENDCHAR
STARTCHAR florin
ENCODING 402
SWIDTH 214 0
DWIDTH 7 0
BBX 11 13 -3 -3
BITMAP
00E0
0120
0200
0200
0200
0FC0
0400
0400
0400
0800
0800
1000
E000
ENDCHAR
STARTCHAR circumflex
ENCODING 710
SWIDTH 196 0
DWIDTH 6 0
BBX 5 2 1 11
BITMAP
20
D8
ENDCHAR
STARTCHAR caron
ENCODING 711
SWIDTH 196 0
DWIDTH 6 0
BBX 5 2 1 11
BITMAP
98
60
ENDCHAR
STARTCHAR breve
ENCODING 728
SWIDTH 198 0
DWIDTH 6 0
BBX 5 2 1 11
BITMAP
88
F0
ENDCHAR
STARTCHAR dotaccent
ENCODING 729
SWIDTH 89 0
DWIDTH 3 0
BBX 2 2 0 10
BITMAP
C0
C0
ENDCHAR
STARTCHAR ring
ENCODING 730
SWIDTH 117 0
DWIDTH 4 0
BBX 4 4 0 9
BITMAP
70
90
B0
E0
ENDCHAR
STARTCHAR ogonek
ENCODING 731
SWIDTH 124 0
DWIDTH 4 0
BBX 2 4 1 -4
BITMAP
40
80
80
C0
ENDCHAR
STARTCHAR tilde
ENCODING 732
SWIDTH 222 0
DWIDTH 7 0
BBX 5 2 1 10
BITMAP
48
B0
ENDCHAR
STARTCHAR hungarumlaut
ENCODING 733
SWIDTH 253 0
DWIDTH 8 0
BBX 7 3 0 10
BITMAP
32
26
C8
ENDCHAR
STARTCHAR mu.dup2
ENCODING 956
SWIDTH 324 0
DWIDTH 10 0
BBX 11 13 0 -5
BITMAP
0860
1040
1080
2180
2280
2280
65A0
58C0
4000
8000
8000
8000
8000
ENDCHAR
STARTCHAR endash
ENCODING 8211
SWIDTH 500 0
DWIDTH 16 0
BBX 14 1 1 4
BITMAP
FFFC
ENDCHAR
STARTCHAR emdash
ENCODING 8212
SWIDTH 1000 0
DWIDTH 32 0
BBX 30 1 1 4
BITMAP
FFFFFFFC
ENDCHAR
STARTCHAR quoteleft
ENCODING 8216
SWIDTH 87 0
DWIDTH 3 0
BBX 2 5 2 8
BITMAP
40
80
80
80
80
ENDCHAR
STARTCHAR quoteright
ENCODING 8217
SWIDTH 87 0
DWIDTH 3 0
BBX 2 5 2 8
BITMAP
40
40
40
80
80
ENDCHAR
STARTCHAR quotesinglbase
ENCODING 8218
SWIDTH 112 0
DWIDTH 4 0
BBX 3 4 0 -2
BITMAP
20
60
40
80
ENDCHAR
STARTCHAR quotedblleft
ENCODING 8220
SWIDTH 167 0
DWIDTH 4 0
BBX 5 5 2 8
BITMAP
58
A0
A0
A0
A0
ENDCHAR
STARTCHAR quotedblright
ENCODING 8221
SWIDTH 167 0
DWIDTH 5 0
BBX 6 5 1 8
BITMAP
24
24
24
48
90
ENDCHAR
STARTCHAR quotedblbase
ENCODING 8222
SWIDTH 192 0
DWIDTH 6 0
BBX 4 4 1 -2
BITMAP
50
50
50
A0
ENDCHAR
STARTCHAR dagger
ENCODING 8224
SWIDTH 185 0
DWIDTH 6 0
BBX 7 20 1 -3
BITMAP
04
08
08
08
10
10
FE
20
20
20
40
40
40
40
80
80
80
80
80
80
ENDCHAR
STARTCHAR daggerdbl
ENCODING 8225
SWIDTH 185 0
DWIDTH 6 0
BBX 8 19 0 -2
BITMAP
02
04
04
04
08
08
7F
10
10
10
20
20
20
FC
40
40
40
40
80
ENDCHAR
STARTCHAR bullet
ENCODING 8226
SWIDTH 207 0
DWIDTH 7 0
BBX 4 4 2 3
BITMAP
70
F0
F0
E0
ENDCHAR
STARTCHAR ellipsis
ENCODING 8230
SWIDTH 376 0
DWIDTH 12 0
BBX 10 2 1 0
BITMAP
C440
88C0
ENDCHAR
STARTCHAR perthousand
ENCODING 8240
SWIDTH 571 0
DWIDTH 18 0
BBX 17 14 1 -2
BITMAP
006000
004000
308000
C90000
8A0000
920000
94C300
EB2C80
0A2880
125100
224900
438E00
400000
800000
ENDCHAR
STARTCHAR guilsinglleft
ENCODING 8249
SWIDTH 189 0
DWIDTH 6 0
BBX 6 8 0 0
BITMAP
04
08
30
40
C0
60
30
10
ENDCHAR
STARTCHAR guilsinglright
ENCODING 8250
SWIDTH 176 0
DWIDTH 6 0
BBX 5 8 -1 0
BITMAP
20
30
18
08
10
20
40
80
ENDCHAR
STARTCHAR fraction
ENCODING 8260
SWIDTH 220 0
DWIDTH 7 0
BBX 11 12 -1 -1
BITMAP
0020
0040
0080
0100
0200
0200
0400
0800
1000
2000
4000
C000
ENDCHAR
STARTCHAR Euro
ENCODING 8364
SWIDTH 360 0
DWIDTH 12 0
BBX 10 10 0 0
BITMAP
0FC0
1040
2000
7E00
2000
7E00
A000
2000
2100
1F00
ENDCHAR
STARTCHAR trademark
ENCODING 8482
SWIDTH 389 0
DWIDTH 12 0
BBX 10 5 1 5
BITMAP
F940
2340
47C0
4940
5240
ENDCHAR
STARTCHAR minus
ENCODING 8722
SWIDTH 301 0
DWIDTH 10 0
BBX 8 1 1 4
BITMAP
FF
ENDCHAR
STARTCHAR fi
ENCODING 64257
SWIDTH 297 0
DWIDTH 10 0
BBX 26 32 -9 -8
BITMAP
00000380
00000CC0
00001040
00002000
00004000
00004000
00008000
00008000
00010000
00010000
00020000
00020000
00061800
00042000
00044000
00080000
001FC000
00288000
00088000
00188000
00110000
00110000
00314000
00218000
00200000
00400000
00800000
00800000
01000000
82000000
84000000
F8000000
ENDCHAR
STARTCHAR fl
ENCODING 64258
SWIDTH 290 0
DWIDTH 9 0
BBX 29 32 -9 -8
BITMAP
00000038
00000F48
00001180
00002200
00004200
00004400
00008800
00008800
00011000
00011000
00022000
00022000
00064000
00044000
00044000
000C8000
001F8000
00288000
00090000
00190000
00110000
00114000
00214000
00218000
00400000
00400000
00800000
00800000
01000000
82000000
84000000
F8000000
ENDCHAR
STARTCHAR .notdef
ENCODING -1
SWIDTH 150 0
DWIDTH 5 0
BBX 1 1 0 0
BITMAP
00
ENDCHAR
STARTCHAR .null
ENCODING -1
SWIDTH 0 0
DWIDTH 0 0
BBX 1 1 0 0
BITMAP
00
ENDCHAR
STARTCHAR nonmarkingreturn
ENCODING -1
SWIDTH 150 0
DWIDTH 5 0
BBX 1 1 0 0
BITMAP
00
ENDCHAR
ENDFONT
